HIERARCHY
ROOT hip
{
  OFFSET 0 0 0
  CHANNELS 6 Xposition Yposition Zposition Zrotation Yrotation Xrotation
  JOINT abdomen
  {
    OFFSET 0 20.6881 -0.73152
    CHANNELS 3 Zrotation Xrotation Yrotation
    JOINT chest
    {
      OFFSET 0 11.7043 -0.48768
      CHANNELS 3 Zrotation Xrotation Yrotation
      JOINT neck
      {
        OFFSET 0 22.1894 -2.19456
        CHANNELS 3 Zrotation Xrotation Yrotation
        JOINT head
        {
          OFFSET -0.24384 7.07133 1.2192
          CHANNELS 3 Zrotation Xrotation Yrotation
          JOINT leftEye
          {
            OFFSET 4.14528 8.04674 8.04672
            CHANNELS 3 Zrotation Xrotation Yrotation
            End Site
            {
              OFFSET 1 0 0
            }
          }
          JOINT rightEye
          {
            OFFSET -3.6576 8.04674 8.04672
            CHANNELS 3 Zrotation Xrotation Yrotation
            End Site
            {
              OFFSET 1 0 0
            }
          }
        }
      }
      JOINT rCollar
      {
        OFFSET -2.68224 19.2634 -4.8768
        CHANNELS 3 Zrotation Xrotation Yrotation
        JOINT rShldr
        {
          OFFSET -8.77824 -1.95073 1.46304
          CHANNELS 3 Zrotation Xrotation Yrotation
          JOINT rForeArm
          {
            OFFSET -28.1742 -1.7115 0.48768
            CHANNELS 3 Zrotation Xrotation Yrotation
            JOINT rHand
            {
              OFFSET -22.5879 0.773209 7.07136
              CHANNELS 3 Zrotation Xrotation Yrotation
              JOINT rThumb1
              {
                OFFSET -1.2192 -0.487915 3.41376
                CHANNELS 3 Zrotation Xrotation Yrotation
                JOINT rThumb2
                {
                  OFFSET -3.37035 -0.52449 3.41376
                  CHANNELS 3 Zrotation Xrotation Yrotation
                  End Site
                  {
                    OFFSET -1.78271 -1.18214 1.43049
                  }
                }
              }
              JOINT rIndex1
              {
                OFFSET -7.75947 0.938293 5.60832
                CHANNELS 3 Zrotation Xrotation Yrotation
                JOINT rIndex2
                {
                  OFFSET -2.54057 -0.884171 1.56538
                  CHANNELS 3 Zrotation Xrotation Yrotation
                  End Site
                  {
                    OFFSET -1.62519 -0.234802 1.16502
                  }
                }
              }
              JOINT rMid1
              {
                OFFSET -8.24714 1.18213 3.41376
                CHANNELS 3 Zrotation Xrotation Yrotation
                JOINT rMid2
                {
                  OFFSET -3.10165 -0.590103 1.0647
                  CHANNELS 3 Zrotation Xrotation Yrotation
                  End Site
                  {
                    OFFSET -2.48547 -0.328903 0.83742
                  }
                }
              }
              JOINT rRing1
              {
                OFFSET -8.82822 0.546677 1.51678
                CHANNELS 3 Zrotation Xrotation Yrotation
                JOINT rRing2
                {
                  OFFSET -2.60934 -0.819778 -0.0198488
                  CHANNELS 3 Zrotation Xrotation Yrotation
                  End Site
                  {
                    OFFSET -2.33842 -0.294052 0.168128
                  }
                }
              }
              JOINT rPinky1
              {
                OFFSET -8.27202 -0.0477905 -0.4584
                CHANNELS 3 Zrotation Xrotation Yrotation
                JOINT rPinky2
                {
                  OFFSET -1.82734 -0.647385 -0.700984
                  CHANNELS 3 Zrotation Xrotation Yrotation
                  End Site
                  {
                    OFFSET -1.69225 -0.51767 -0.607171
                  }
                }
              }
            }
          }
        }
      }
      JOINT lCollar
      {
        OFFSET 2.68224 19.2634 -4.8768
        CHANNELS 3 Zrotation Xrotation Yrotation
        JOINT lShldr
        {
          OFFSET 8.77824 -1.95073 1.46304
          CHANNELS 3 Zrotation Xrotation Yrotation
          JOINT lForeArm
          {
            OFFSET 28.1742 -1.7115 0.48768
            CHANNELS 3 Zrotation Xrotation Yrotation
            JOINT lHand
            {
              OFFSET 22.5879 0.773209 7.07136
              CHANNELS 3 Zrotation Xrotation Yrotation
              JOINT lThumb1
              {
                OFFSET 1.2192 -0.487915 3.41376
                CHANNELS 3 Zrotation Xrotation Yrotation
                JOINT lThumb2
                {
                  OFFSET 3.37035 -0.52449 3.41376
                  CHANNELS 3 Zrotation Xrotation Yrotation
                  End Site
                  {
                    OFFSET 1.78271 -1.18214 1.43049
                  }
                }
              }
              JOINT lIndex1
              {
                OFFSET 7.75947 0.938293 5.60832
                CHANNELS 3 Zrotation Xrotation Yrotation
                JOINT lIndex2
                {
                  OFFSET 2.54057 -0.884171 1.56538
                  CHANNELS 3 Zrotation Xrotation Yrotation
                  End Site
                  {
                    OFFSET 1.62519 -0.234802 1.16502
                  }
                }
              }
              JOINT lMid1
              {
                OFFSET 8.24714 1.18213 3.41376
                CHANNELS 3 Zrotation Xrotation Yrotation
                JOINT lMid2
                {
                  OFFSET 3.10165 -0.590103 1.0647
                  CHANNELS 3 Zrotation Xrotation Yrotation
                  End Site
                  {
                    OFFSET 2.48547 -0.328903 0.83742
                  }
                }
              }
              JOINT lRing1
              {
                OFFSET 8.82822 0.546677 1.51678
                CHANNELS 3 Zrotation Xrotation Yrotation
                JOINT lRing2
                {
                  OFFSET 2.60934 -0.819778 -0.0198488
                  CHANNELS 3 Zrotation Xrotation Yrotation
                  End Site
                  {
                    OFFSET 2.33842 -0.294052 0.168128
                  }
                }
              }
              JOINT lPinky1
              {
                OFFSET 8.27202 -0.0477905 -0.4584
                CHANNELS 3 Zrotation Xrotation Yrotation
                JOINT lPinky2
                {
                  OFFSET 1.82734 -0.647385 -0.700984
                  CHANNELS 3 Zrotation Xrotation Yrotation
                  End Site
                  {
                    OFFSET 1.69225 -0.51767 -0.607171
                  }
                }
              }
            }
          }
        }
      }
    }
  }
  JOINT rButtock
  {
    OFFSET -8.77824 4.35084 1.2192
    CHANNELS 3 Zrotation Xrotation Yrotation
    JOINT rThigh
    {
      OFFSET 0 -1.70687 -2.19456
      CHANNELS 3 Zrotation Xrotation Yrotation
      JOINT rShin
      {
        OFFSET 0 -36.8199 0.73152
        CHANNELS 3 Zrotation Xrotation Yrotation
        JOINT rFoot
        {
          OFFSET 0.73152 -45.1104 -5.12064
          CHANNELS 3 Zrotation Xrotation Yrotation
          End Site
          {
            OFFSET -1.1221 -3.69964 12.103
          }
        }
      }
    }
  }
  JOINT lButtock
  {
    OFFSET 8.77824 4.35084 1.2192
    CHANNELS 3 Zrotation Xrotation Yrotation
    JOINT lThigh
    {
      OFFSET 0 -1.70687 -2.19456
      CHANNELS 3 Zrotation Xrotation Yrotation
      JOINT lShin
      {
        OFFSET 0 -36.8199 0.73152
        CHANNELS 3 Zrotation Xrotation Yrotation
        JOINT lFoot
        {
          OFFSET -0.73152 -45.1104 -5.12064
          CHANNELS 3 Zrotation Xrotation Yrotation
          End Site
          {
            OFFSET 1.1221 -3.69964 12.103
          }
        }
      }
    }
  }
}
MOTION
Frames:	8
Frame Time:	0.00833333
55.4327 31.1411 150.732 181.245 -7.5488 -109.692 2.27042 12.0463 -9.92686 6.56404 -8.86933 -1.62083 1.78056 -14.0251 2.58937 -8.66116 23.9021 8.93983 -0.0 0.0 0.0 -0.0 0.0 0.0 1.36976e-13 3.39136e-13 -2.6516e-14 33.1642 1.29967 71.4522 -12.6341 -5.90342 22.8442 -0.00789928 2.53665 0.356738 5.45557e-09 -3.41423e-09 -1.02171e-09 9.42673e-09 -5.881e-09 -1.7856e-09 5.45557e-09 -3.41422e-09 -1.02172e-09 7.73091 5.47488 0.417314 5.45557e-09 -3.41422e-09 -1.02171e-09 2.90554 0.965183 0.102902 5.45558e-09 -3.41422e-09 -1.02171e-09 10.2786 0.731801 0.0259123 5.45557e-09 -3.41422e-09 -1.0217e-09 2.22167 -0.733487 -0.20892 1.36859e-13 3.39116e-13 -2.6662e-14 -34.2546 -8.4905 -71.7047 12.8781 -6.08386 -23.3229 0.749967 -23.8126 3.55591 -1.23202e-09 2.00202e-09 4.13479e-09 -2.19418e-09 3.36054e-09 7.12629e-09 -1.23203e-09 2.00202e-09 4.13482e-09 -7.73091 5.47488 -0.417314 -1.23202e-09 2.00201e-09 4.1348e-09 -2.90554 0.965183 -0.102902 -1.23203e-09 2.00201e-09 4.1348e-09 -10.2786 0.731801 -0.0259123 -1.23202e-09 2.00201e-09 4.13479e-09 -2.22167 -0.733487 0.20892 -2.03217e-16 0.0 -3.88251e-19 -168.042 -68.3921 -159.783 -176.163 64.8454 175.899 -34.4527 66.0625 38.1417 2.03217e-16 0.0 3.88251e-19 27.0845 -69.7169 29.6356 175.106 78.658 -178.133 0.832911 0.937622 -26.2972
55.4972 31.0617 150.565 180.982 -7.8106 -109.926 2.49402 12.2191 -10.1733 6.58116 -8.8546 -1.68075 1.78663 -13.9704 2.57408 -8.62171 23.957 8.92447 -0.0 0.0 0.0 -0.0 0.0 0.0 2.56777e-13 5.03134e-13 2.30074e-14 33.1552 1.32001 71.436 -12.6541 -5.91813 22.8834 -0.00789651 2.5363 0.356689 6.16922e-09 -3.32739e-09 -1.91312e-09 1.06559e-08 -5.7255e-09 -3.3287e-09 6.16922e-09 -3.32738e-09 -1.91312e-09 7.73091 5.47488 0.417314 6.16921e-09 -3.32738e-09 -1.91312e-09 2.90554 0.965183 0.102902 6.16923e-09 -3.32738e-09 -1.91312e-09 10.2786 0.731801 0.0259123 6.16922e-09 -3.32738e-09 -1.91311e-09 2.22167 -0.733487 -0.20892 2.56589e-13 5.03113e-13 2.27981e-14 -34.1635 -8.47466 -71.7084 12.8472 -6.06087 -23.2622 0.757267 -23.9196 3.57394 -1.8292e-09 1.91279e-09 5.05339e-09 -3.24029e-09 3.18006e-09 8.70434e-09 -1.82921e-09 1.91279e-09 5.05341e-09 -7.73091 5.47488 -0.417314 -1.8292e-09 1.91279e-09 5.05339e-09 -2.90554 0.965183 -0.102902 -1.82921e-09 1.91279e-09 5.05339e-09 -10.2786 0.731801 -0.0259123 -1.8292e-09 1.91279e-09 5.05339e-09 -2.22167 -0.733487 0.20892 -2.03217e-16 0.0 -3.88251e-19 -167.278 -67.7733 -159.394 -176.226 64.245 175.981 -34.347 65.9494 38.0848 2.03217e-16 0.0 3.88251e-19 26.8787 -69.2347 29.6645 175.058 78.8087 -178.093 0.910541 0.935638 -26.3362
55.5643 30.9815 150.392 180.707 -8.0938 -110.152 2.7264 12.3765 -10.4299 6.5981 -8.83894 -1.7438 1.79171 -13.909 2.55898 -8.5816 24.0045 8.90925 -0.0 0.0 0.0 -0.0 0.0 0.0 2.983e-13 5.31161e-13 4.08502e-14 33.146 1.34726 71.4073 -12.675 -5.93345 22.9242 -0.00790755 2.53814 0.356948 6.08328e-09 -3.14786e-09 -2.09842e-09 1.05064e-08 -5.41501e-09 -3.64843e-09 6.08328e-09 -3.14785e-09 -2.09842e-09 7.73091 5.47488 0.417314 6.08327e-09 -3.14785e-09 -2.09842e-09 2.90554 0.965183 0.102902 6.08329e-09 -3.14785e-09 -2.09841e-09 10.2786 0.731801 0.0259123 6.08328e-09 -3.14785e-09 -2.09841e-09 2.22167 -0.733487 -0.20892 2.98074e-13 5.31143e-13 4.06018e-14 -34.0868 -8.44362 -71.7108 12.8164 -6.03794 -23.2016 0.763936 -24.0168 3.59033 -1.9137e-09 1.78175e-09 5.0768e-09 -3.38673e-09 2.95191e-09 8.74367e-09 -1.9137e-09 1.78175e-09 5.07682e-09 -7.73091 5.47488 -0.417314 -1.91369e-09 1.78175e-09 5.0768e-09 -2.90554 0.965183 -0.102902 -1.9137e-09 1.78175e-09 5.0768e-09 -10.2786 0.731801 -0.0259123 -1.91369e-09 1.78175e-09 5.07679e-09 -2.22167 -0.733487 0.20892 -2.03217e-16 0.0 -3.88251e-19 -166.524 -67.223 -158.998 -176.279 63.7048 176.051 -34.3603 65.9045 38.133 2.03217e-16 0.0 3.88251e-19 26.6877 -68.7484 29.7198 175.007 78.9626 -178.048 0.989616 0.936679 -26.3732
55.6346 30.8995 150.213 180.42 -8.3958 -110.372 2.97041 12.5169 -10.6984 6.61353 -8.82193 -1.81034 1.79587 -13.8369 2.54494 -8.54081 24.0369 8.89414 -0.0 0.0 0.0 -0.0 0.0 0.0 2.25169e-13 3.25069e-13 3.44534e-15 33.1345 1.38081 71.3667 -12.6965 -5.94928 22.9664 -0.0079116 2.53853 0.357004 4.62397e-09 -2.82628e-09 -1.06973e-09 7.98878e-09 -4.86818e-09 -1.86465e-09 4.62397e-09 -2.82627e-09 -1.06974e-09 7.73091 5.47488 0.417314 4.62396e-09 -2.82628e-09 -1.06973e-09 2.90554 0.965183 0.102902 4.62398e-09 -2.82627e-09 -1.06973e-09 10.2786 0.731801 0.0259123 4.62397e-09 -2.82627e-09 -1.06972e-09 2.22167 -0.733487 -0.20892 2.24954e-13 3.25056e-13 3.18832e-15 -34.0294 -8.39755 -71.7135 12.7849 -6.01457 -23.1397 0.769635 -24.0994 3.60429 -1.0762e-09 1.58869e-09 3.53463e-09 -1.91617e-09 2.65971e-09 6.09268e-09 -1.0762e-09 1.58869e-09 3.53465e-09 -7.73091 5.47488 -0.417314 -1.0762e-09 1.58869e-09 3.53463e-09 -2.90554 0.965183 -0.102902 -1.07621e-09 1.58869e-09 3.53463e-09 -10.2786 0.731801 -0.0259123 -1.07619e-09 1.58869e-09 3.53463e-09 -2.22167 -0.733487 0.20892 -2.03217e-16 0.0 -3.88251e-19 -165.777 -66.7382 -158.592 -176.324 63.2272 176.11 -34.4976 65.9512 38.2847 2.03217e-16 0.0 3.88251e-19 26.5098 -68.2552 29.8028 174.953 79.1223 -178.0 1.0726 0.943823 -26.409
55.7068 30.8133 150.03 180.122 -8.7136 -110.586 3.22882 12.6387 -10.9788 6.62779 -8.80141 -1.88054 1.79893 -13.7578 2.53147 -8.49611 24.0607 8.87873 -0.0 0.0 0.0 -0.0 0.0 0.0 7.90546e-14 -4.29352e-14 -6.93137e-14 33.1189 1.42062 71.3166 -12.719 -5.96585 23.0105 -0.00790194 2.53656 0.356726 2.12517e-09 -2.3403e-09 7.90189e-10 3.67833e-09 -4.04385e-09 1.35986e-09 2.12518e-09 -2.3403e-09 7.90179e-10 7.73091 5.47488 0.417314 2.12516e-09 -2.3403e-09 7.90193e-10 2.90554 0.965183 0.102902 2.12517e-09 -2.3403e-09 7.90191e-10 10.2786 0.731801 0.0259123 2.12516e-09 -2.3403e-09 7.90201e-10 2.22167 -0.733487 -0.20892 7.88788e-14 -4.29405e-14 -6.95622e-14 -33.9843 -8.33921 -71.7158 12.7525 -5.99059 -23.076 0.774792 -24.174 3.6169 4.10832e-10 1.30575e-09 8.47706e-10 6.94177e-10 2.24334e-09 1.47413e-09 4.10823e-10 1.30575e-09 8.47721e-10 -7.73091 5.47488 -0.417314 4.10826e-10 1.30574e-09 8.47704e-10 -2.90554 0.965183 -0.102902 4.10824e-10 1.30575e-09 8.47705e-10 -10.2786 0.731801 -0.0259123 4.10839e-10 1.30575e-09 8.47701e-10 -2.22167 -0.733487 0.20892 -2.03217e-16 0.0 -3.88251e-19 -165.039 -66.3073 -158.183 -176.363 62.8015 176.16 -34.7197 66.0616 38.5064 2.03217e-16 0.0 3.88251e-19 26.3434 -67.7591 29.9128 174.895 79.2856 -177.946 1.15753 0.953965 -26.442
55.7814 30.7232 149.843 179.813 -9.044 -110.796 3.49258 12.7466 -11.2667 6.64368 -8.77995 -1.95341 1.8009 -13.6772 2.51697 -8.45003 24.0885 8.86341 -0.0 0.0 0.0 -0.0 0.0 0.0 -8.94507e-14 -4.06168e-13 -1.39321e-13 33.1055 1.46847 71.254 -12.7425 -5.98317 23.0565 -0.00793045 2.54107 0.357361 -3.72521e-10 -1.81773e-09 2.62567e-09 -6.30337e-10 -3.15591e-09 4.54189e-09 -3.72511e-10 -1.81773e-09 2.62566e-09 7.73091 5.47488 0.417314 -3.72527e-10 -1.81773e-09 2.62568e-09 2.90554 0.965183 0.102902 -3.7252e-10 -1.81773e-09 2.62567e-09 10.2786 0.731801 0.0259123 -3.7253e-10 -1.81773e-09 2.62568e-09 2.22167 -0.733487 -0.20892 -8.95803e-14 -4.06166e-13 -1.39548e-13 -33.9456 -8.26625 -71.7146 12.7209 -5.96723 -23.014 0.779783 -24.2459 3.62908 1.83079e-09 9.99258e-10 -1.79121e-09 3.18821e-09 1.78473e-09 -3.06298e-09 1.83078e-09 9.99258e-10 -1.7912e-09 -7.73091 5.47488 -0.417314 1.83078e-09 9.99244e-10 -1.79122e-09 -2.90554 0.965183 -0.102902 1.83078e-09 9.9925e-10 -1.79121e-09 -10.2786 0.731801 -0.0259123 1.8308e-09 9.99254e-10 -1.79122e-09 -2.22167 -0.733487 0.20892 -2.03217e-16 0.0 -3.88251e-19 -164.307 -65.9449 -157.762 -176.396 62.4304 176.202 -35.048 66.2032 38.8303 2.03217e-16 0.0 3.88251e-19 26.1864 -67.2639 30.0413 174.834 79.4486 -177.888 1.24036 0.962515 -26.4718
55.8588 30.6276 149.657 179.496 -9.3849 -111.0 3.75265 12.8452 -11.5582 6.66395 -8.76016 -2.02796 1.80182 -13.6011 2.49985 -8.40508 24.1326 8.84859 -0.0 0.0 0.0 -0.0 0.0 0.0 -2.29754e-13 -5.97949e-13 -1.6847e-13 33.1007 1.52621 71.176 -12.767 -6.00125 23.1045 -0.00805023 2.56092 0.360155 -1.8285e-09 -1.38638e-09 3.58105e-09 -3.14257e-09 -2.41826e-09 6.19825e-09 -1.82849e-09 -1.38638e-09 3.58104e-09 7.73091 5.47488 0.417314 -1.82851e-09 -1.38639e-09 3.58106e-09 2.90554 0.965183 0.102902 -1.8285e-09 -1.38638e-09 3.58105e-09 10.2786 0.731801 0.0259123 -1.82851e-09 -1.38638e-09 3.58106e-09 2.22167 -0.733487 -0.20892 -2.29851e-13 -5.9794e-13 -1.68669e-13 -33.9079 -8.17631 -71.7074 12.6917 -5.94572 -22.9569 0.784993 -24.3208 3.64176 2.46708e-09 7.35545e-10 -3.18936e-09 4.30981e-09 1.36583e-09 -5.46965e-09 2.46707e-09 7.35543e-10 -3.18935e-09 -7.73091 5.47488 -0.417314 2.46707e-09 7.35529e-10 -3.18936e-09 -2.90554 0.965183 -0.102902 2.46708e-09 7.35535e-10 -3.18936e-09 -10.2786 0.731801 -0.0259123 2.46709e-09 7.35538e-10 -3.18936e-09 -2.22167 -0.733487 0.20892 -2.03217e-16 0.0 -3.88251e-19 -163.579 -65.6653 -157.318 -176.423 62.1168 176.237 -35.5044 66.3433 39.2883 2.03217e-16 0.0 3.88251e-19 26.0376 -66.7733 30.1803 174.772 79.6074 -177.828 1.31703 0.964918 -26.498
55.9393 30.5281 149.47 179.17 -9.7355 -111.199 4.00924 12.9497 -11.8507 6.68906 -8.74829 -2.10318 1.79975 -13.5295 2.47743 -8.35933 24.1978 8.83148 -0.0 0.0 0.0 -0.0 0.0 0.0 -3.35899e-13 -5.30861e-13 -1.42793e-13 33.1082 1.59261 71.077 -12.7934 -6.02077 23.1562 -0.00829936 2.6009 0.365787 -1.70628e-09 -1.10173e-09 3.22585e-09 -2.93321e-09 -1.92285e-09 5.58245e-09 -1.70627e-09 -1.10173e-09 3.22584e-09 7.73091 5.47488 0.417314 -1.70629e-09 -1.10173e-09 3.22585e-09 2.90554 0.965183 0.102902 -1.70628e-09 -1.10173e-09 3.22585e-09 10.2786 0.731801 0.0259123 -1.70629e-09 -1.10173e-09 3.22586e-09 2.22167 -0.733487 -0.20892 -3.35981e-13 -5.30848e-13 -1.42945e-13 -33.8777 -8.06534 -71.6985 12.6649 -5.92601 -22.9044 0.790154 -24.3944 3.65426 1.93821e-09 5.73634e-10 -2.70521e-09 3.39038e-09 1.07122e-09 -4.64405e-09 1.9382e-09 5.73633e-10 -2.70519e-09 -7.73091 5.47488 -0.417314 1.9382e-09 5.73619e-10 -2.70521e-09 -2.90554 0.965183 -0.102902 1.93821e-09 5.73626e-10 -2.70521e-09 -10.2786 0.731801 -0.0259123 1.93822e-09 5.73628e-10 -2.70521e-09 -2.22167 -0.733487 0.20892 -2.03217e-16 0.0 -3.88251e-19 -162.841 -65.4811 -156.838 -176.443 61.8673 176.265 -36.1462 66.4945 39.9359 2.03217e-16 0.0 3.88251e-19 25.8835 -66.2725 30.3148 174.708 79.7641 -177.764 1.38786 0.959324 -26.5203
